
 
http://www.imdb.com/title/tt1951261/


 When one of their own is kidnapped by an angry gangster, the Wolf Pack must track down Mr. Chow, who has escaped from prison and is on the lam. 



 Director:
 Todd Phillips 

 Writers:
 Todd Phillips, Craig Mazin

 Stars:
 Bradley Cooper, Ed Helms, Zach Galifianakis 

 Genres:
   Comedy 

 Country:
 USA 

 Language:
 English 



 Format                                   : AVI
 Format/Info                              : Audio Video Interleave
 File size                                : 696 MiB
 Duration                                 : 1h 38mn
 Overall bit rate                         : 991 Kbps
 Writing application                      : Lavf55.3.100

 Video
 ID                                       : 0
 Format                                   : MPEG-4 Visual
 Format profile                           : Simple@L3
 Format settings, BVOP                    : No
 Format settings, QPel                    : No
 Format settings, GMC                     : No warppoints
 Format settings, Matrix                  : Default (H.263)
 Codec ID                                 : XVID
 Codec ID/Hint                            : XviD
 Duration                                 : 1h 38mn
 Bit rate                                 : 900 Kbps
 Width                                    : 640 pixels
 Height                                   : 270 pixels
 Display aspect ratio                     : 2.35:1
 Original display aspect ratio            : 2.40:1
 Frame rate                               : 23.976 fps
 Color space                              : YUV
 Chroma subsampling                       : 4:2:0
 Bit depth                                : 8 bits
 Scan type                                : Progressive
 Compression mode                         : Lossy
 Bits/(Pixel*Frame)                       : 0.217
 Stream size                              : 632 MiB (91%)
 Writing library                          : XviD 64

 Audio
 ID                                       : 1
 Format                                   : AC-3
 Format/Info                              : Audio Coding 3
 Mode extension                           : CM (complete main)
 Format settings, Endianness              : Big
 Codec ID                                 : 2000
 Duration                                 : 1h 38mn
 Bit rate mode                            : Constant
 Bit rate                                 : 80.0 Kbps
 Channel(s)                               : 2 channels
 Channel positions                        : Front: L R
 Sampling rate                            : 48.0 KHz
 Bit depth                                : 16 bits
 Compression mode                         : Lossy
 Stream size                              : 56.2 MiB (8%)
 Alignment                                : Aligned on interleaves
 Interleave, duration                     : 32 ms (0.77 video frame)



 
http://addpix.net/viewer.php?file=07811416770410631192.jpg 
http://addpix.net/viewer.php?file=51680969684576465923.jpg 
http://addpix.net/viewer.php?file=44136778496425553804.jpg 
http://addpix.net/viewer.php?file=48129845910636022470.jpg 
http://addpix.net/viewer.php?file=32895465839667685037.jpg 
http://addpix.net/viewer.php?file=15059353370726547976.jpg

